<svg xmlns="http://www.w3.org/2000/svg" width="243.596" height="243.596" viewBox="0 0 243.596 243.596">
  <path id="Path_1" data-name="Path 1" d="M129,7.2A121.8,121.8,0,1,0,250.8,129,121.69,121.69,0,0,0,129,7.2Zm8.7,42.629,26.97-18.777a103.707,103.707,0,0,1,48.864,36.9l-8.337,29-11.817,4.06-55.679-39Zm43.644,64.017L161.55,172.5H96.3L76.654,113.846,129,77.161ZM93.329,31.052,120.3,49.829v12.18l-55.534,39-11.817-4.2L44.609,67.954A103.674,103.674,0,0,1,93.329,31.052ZM73.319,190.767l-26.462,2.247a103.171,103.171,0,0,1-22.112-63.147l22.62-16.53,12.035,4.2L80.134,178.95Zm82.286,39.149A103.764,103.764,0,0,1,129,233.4a110.554,110.554,0,0,1-26.607-3.48l-14.137-30.3,5.582-9.57H164.16l5.582,9.57Zm55.534-36.684-26.462-2.32-6.96-11.817,20.88-61.552,12.035-4.2,22.62,16.53A104.283,104.283,0,0,1,211.139,193.232Z" transform="translate(-7.2 -7.2)"/>
</svg>
